<?xml version="1.0" encoding="UTF-8" standalone="no"?>
<!DOCTYPE svg PUBLIC "-//W3C//DTD SVG 1.1//EN"
 "http://www.w3.org/Graphics/SVG/1.1/DTD/svg11.dtd">
<!-- Generated by graphviz version 2.40.1 (20161225.0304)
 -->
<!-- Title: G Pages: 1 -->
<svg width="552pt" height="1029pt"
 viewBox="0.00 0.00 552.04 1029.00" xmlns="http://www.w3.org/2000/svg" xmlns:xlink="http://www.w3.org/1999/xlink">
<g id="graph0" class="graph" transform="scale(1 1) rotate(0) translate(4 1025)">
<title>G</title>
<polygon fill="#ffffff" stroke="transparent" points="-4,4 -4,-1025 548.043,-1025 548.043,4 -4,4"/>
<g id="clust1" class="cluster">
<title>cluster_Global</title>
<path fill="none" stroke="#c0c0c0" d="M20,-8C20,-8 524.043,-8 524.043,-8 530.043,-8 536.043,-14 536.043,-20 536.043,-20 536.043,-1001 536.043,-1001 536.043,-1007 530.043,-1013 524.043,-1013 524.043,-1013 20,-1013 20,-1013 14,-1013 8,-1007 8,-1001 8,-1001 8,-20 8,-20 8,-14 14,-8 20,-8"/>
<text text-anchor="middle" x="272.0215" y="-1000.2" font-family="Times,serif" font-size="11.00" fill="#c0c0c0">Global</text>
</g>
<g id="clust2" class="cluster">
<title>cluster_\Bold</title>
<path fill="none" stroke="#c0c0c0" d="M28,-16C28,-16 516.043,-16 516.043,-16 522.043,-16 528.043,-22 528.043,-28 528.043,-28 528.043,-974 528.043,-974 528.043,-980 522.043,-986 516.043,-986 516.043,-986 28,-986 28,-986 22,-986 16,-980 16,-974 16,-974 16,-28 16,-28 16,-22 22,-16 28,-16"/>
<text text-anchor="middle" x="272.0215" y="-973.2" font-family="Times,serif" font-size="11.00" fill="#c0c0c0">Bold</text>
</g>
<g id="clust3" class="cluster">
<title>cluster_\Bold\PIMService</title>
<path fill="none" stroke="#c0c0c0" d="M36,-24C36,-24 508.043,-24 508.043,-24 514.043,-24 520.043,-30 520.043,-36 520.043,-36 520.043,-947 520.043,-947 520.043,-953 514.043,-959 508.043,-959 508.043,-959 36,-959 36,-959 30,-959 24,-953 24,-947 24,-947 24,-36 24,-36 24,-30 30,-24 36,-24"/>
<text text-anchor="middle" x="272.0215" y="-946.2" font-family="Times,serif" font-size="11.00" fill="#c0c0c0">PIMService</text>
</g>
<g id="clust4" class="cluster">
<title>cluster_\Edg\ErpService\DataModel</title>
<path fill="none" stroke="#c0c0c0" d="M394.9285,-699C394.9285,-699 488.7424,-699 488.7424,-699 494.7424,-699 500.7424,-705 500.7424,-711 500.7424,-711 500.7424,-920 500.7424,-920 500.7424,-926 494.7424,-932 488.7424,-932 488.7424,-932 394.9285,-932 394.9285,-932 388.9285,-932 382.9285,-926 382.9285,-920 382.9285,-920 382.9285,-711 382.9285,-711 382.9285,-705 388.9285,-699 394.9285,-699"/>
<text text-anchor="middle" x="441.8354" y="-919.2" font-family="Times,serif" font-size="11.00" fill="#c0c0c0">DataModel</text>
</g>
<g id="clust5" class="cluster">
<title>cluster_\Edg\ErpService\Utils</title>
<path fill="none" stroke="#c0c0c0" d="M418.8354,-620C418.8354,-620 464.8354,-620 464.8354,-620 470.8354,-620 476.8354,-626 476.8354,-632 476.8354,-632 476.8354,-679 476.8354,-679 476.8354,-685 470.8354,-691 464.8354,-691 464.8354,-691 418.8354,-691 418.8354,-691 412.8354,-691 406.8354,-685 406.8354,-679 406.8354,-679 406.8354,-632 406.8354,-632 406.8354,-626 412.8354,-620 418.8354,-620"/>
<text text-anchor="middle" x="441.8354" y="-678.2" font-family="Times,serif" font-size="11.00" fill="#c0c0c0">Utils</text>
</g>
<g id="clust6" class="cluster">
<title>cluster_\Edg\ErpService\Sync</title>
<path fill="none" stroke="#c0c0c0" d="M44,-319C44,-319 500.043,-319 500.043,-319 506.043,-319 512.043,-325 512.043,-331 512.043,-331 512.043,-600 512.043,-600 512.043,-606 506.043,-612 500.043,-612 500.043,-612 44,-612 44,-612 38,-612 32,-606 32,-600 32,-600 32,-331 32,-331 32,-325 38,-319 44,-319"/>
<text text-anchor="middle" x="272.0215" y="-599.2" font-family="Times,serif" font-size="11.00" fill="#c0c0c0">Sync</text>
</g>
<g id="clust7" class="cluster">
<title>cluster_\Edg\ErpService\Sync\Pull</title>
<path fill="none" stroke="#c0c0c0" d="M391.6279,-406C391.6279,-406 492.043,-406 492.043,-406 498.043,-406 504.043,-412 504.043,-418 504.043,-418 504.043,-573 504.043,-573 504.043,-579 498.043,-585 492.043,-585 492.043,-585 391.6279,-585 391.6279,-585 385.6279,-585 379.6279,-579 379.6279,-573 379.6279,-573 379.6279,-418 379.6279,-418 379.6279,-412 385.6279,-406 391.6279,-406"/>
<text text-anchor="middle" x="441.8354" y="-572.2" font-family="Times,serif" font-size="11.00" fill="#c0c0c0">Pull</text>
</g>
<g id="clust8" class="cluster">
<title>cluster_\Edg\ErpService\Sync\Push</title>
<path fill="none" stroke="#c0c0c0" d="M401.5295,-327C401.5295,-327 482.1414,-327 482.1414,-327 488.1414,-327 494.1414,-333 494.1414,-339 494.1414,-339 494.1414,-386 494.1414,-386 494.1414,-392 488.1414,-398 482.1414,-398 482.1414,-398 401.5295,-398 401.5295,-398 395.5295,-398 389.5295,-392 389.5295,-386 389.5295,-386 389.5295,-339 389.5295,-339 389.5295,-333 395.5295,-327 401.5295,-327"/>
<text text-anchor="middle" x="441.8354" y="-385.2" font-family="Times,serif" font-size="11.00" fill="#c0c0c0">Push</text>
</g>
<g id="clust9" class="cluster">
<title>cluster_\Edg\ErpService\Response</title>
<path fill="none" stroke="#c0c0c0" d="M394.9285,-78C394.9285,-78 488.7424,-78 488.7424,-78 494.7424,-78 500.7424,-84 500.7424,-90 500.7424,-90 500.7424,-299 500.7424,-299 500.7424,-305 494.7424,-311 488.7424,-311 488.7424,-311 394.9285,-311 394.9285,-311 388.9285,-311 382.9285,-305 382.9285,-299 382.9285,-299 382.9285,-90 382.9285,-90 382.9285,-84 388.9285,-78 394.9285,-78"/>
<text text-anchor="middle" x="441.8354" y="-298.2" font-family="Times,serif" font-size="11.00" fill="#c0c0c0">Response</text>
</g>
<!-- \\Edg\\ErpService\\DataModel\\ArticleInfo -->
<g id="node1" class="node">
<title>\\Edg\\ErpService\\DataModel\\ArticleInfo</title>
<polygon fill="none" stroke="#000000" points="485.9481,-905 397.7228,-905 397.7228,-869 485.9481,-869 485.9481,-905"/>
<text text-anchor="middle" x="441.8354" y="-883.7" font-family="Courier,monospace" font-size="11.00" fill="#000000">ArticleInfo</text>
</g>
<!-- \\Edg\\ErpService\\DataModel\\StockMutation -->
<g id="node2" class="node">
<title>\\Edg\\ErpService\\DataModel\\StockMutation</title>
<polygon fill="none" stroke="#000000" points="492.6496,-851 391.0213,-851 391.0213,-815 492.6496,-815 492.6496,-851"/>
<text text-anchor="middle" x="441.8354" y="-829.7" font-family="Courier,monospace" font-size="11.00" fill="#000000">StockMutation</text>
</g>
<!-- \\Edg\\ErpService\\DataModel\\Order -->
<g id="node3" class="node">
<title>\\Edg\\ErpService\\DataModel\\Order</title>
<polygon fill="none" stroke="#000000" points="468.8354,-797 414.8354,-797 414.8354,-761 468.8354,-761 468.8354,-797"/>
<text text-anchor="middle" x="441.8354" y="-775.7" font-family="Courier,monospace" font-size="11.00" fill="#000000">Order</text>
</g>
<!-- \\Edg\\ErpService\\DataModel\\OrderStatus -->
<g id="node4" class="node">
<title>\\Edg\\ErpService\\DataModel\\OrderStatus</title>
<polygon fill="none" stroke="#000000" points="485.9481,-743 397.7228,-743 397.7228,-707 485.9481,-707 485.9481,-743"/>
<text text-anchor="middle" x="441.8354" y="-721.7" font-family="Courier,monospace" font-size="11.00" fill="#000000">OrderStatus</text>
</g>
<!-- \\Edg\\ErpService\\Utils\\Xml -->
<g id="node5" class="node">
<title>\\Edg\\ErpService\\Utils\\Xml</title>
<polygon fill="none" stroke="#000000" points="468.8354,-664 414.8354,-664 414.8354,-628 468.8354,-628 468.8354,-664"/>
<text text-anchor="middle" x="441.8354" y="-642.7" font-family="Courier,monospace" font-size="11.00" fill="#000000">Xml</text>
</g>
<!-- \\Edg\\ErpService\\Sync\\Pull\\ArticleInfo -->
<g id="node6" class="node">
<title>\\Edg\\ErpService\\Sync\\Pull\\ArticleInfo</title>
<polygon fill="none" stroke="#000000" points="485.9481,-558 397.7228,-558 397.7228,-522 485.9481,-522 485.9481,-558"/>
<text text-anchor="middle" x="441.8354" y="-536.7" font-family="Courier,monospace" font-size="11.00" fill="#000000">ArticleInfo</text>
</g>
<!-- \\Edg\\ErpService\\Sync\\Request -->
<g id="node10" class="node">
<title>\\Edg\\ErpService\\Sync\\Request</title>
<polygon fill="none" stroke="#000000" points="315.6333,-477 233.6118,-477 233.6118,-441 315.6333,-441 315.6333,-477"/>
<text text-anchor="start" x="241.6172" y="-461.2" font-family="Courier,monospace" font-size="11.00" fill="#000000">«abstract»</text>
<text text-anchor="start" x="251.5188" y="-450.2" font-family="Courier,monospace" font-size="11.00" fill="#000000">Request</text>
</g>
<!-- \\Edg\\ErpService\\Sync\\Pull\\ArticleInfo&#45;&gt;\\Edg\\ErpService\\Sync\\Request -->
<g id="edge1" class="edge">
<title>\\Edg\\ErpService\\Sync\\Pull\\ArticleInfo&#45;&gt;\\Edg\\ErpService\\Sync\\Request</title>
<path fill="none" stroke="#000000" d="M399.1706,-521.9226C392.5943,-519.0094 385.9059,-515.9728 379.6279,-513 358.9295,-503.1988 336.2988,-491.668 317.3643,-481.7839"/>
<polygon fill="none" stroke="#000000" points="318.8725,-478.6227 308.3908,-477.0787 315.6219,-484.8222 318.8725,-478.6227"/>
</g>
<!-- \\Edg\\ErpService\\Sync\\Pull\\StockMutations -->
<g id="node7" class="node">
<title>\\Edg\\ErpService\\Sync\\Pull\\StockMutations</title>
<polygon fill="none" stroke="#000000" points="496.2513,-504 387.4196,-504 387.4196,-468 496.2513,-468 496.2513,-504"/>
<text text-anchor="middle" x="441.8354" y="-482.7" font-family="Courier,monospace" font-size="11.00" fill="#000000">StockMutations</text>
</g>
<!-- \\Edg\\ErpService\\Sync\\Pull\\StockMutations&#45;&gt;\\Edg\\ErpService\\Sync\\Request -->
<g id="edge2" class="edge">
<title>\\Edg\\ErpService\\Sync\\Pull\\StockMutations&#45;&gt;\\Edg\\ErpService\\Sync\\Request</title>
<path fill="none" stroke="#000000" d="M387.5462,-477.2339C367.6507,-474.0213 345.2191,-470.3993 325.6217,-467.2349"/>
<polygon fill="none" stroke="#000000" points="326.0905,-463.7653 315.6604,-465.6264 324.9746,-470.6758 326.0905,-463.7653"/>
</g>
<!-- \\Edg\\ErpService\\Sync\\Pull\\OrderImport -->
<g id="node8" class="node">
<title>\\Edg\\ErpService\\Sync\\Pull\\OrderImport</title>
<polygon fill="none" stroke="#000000" points="485.9481,-450 397.7228,-450 397.7228,-414 485.9481,-414 485.9481,-450"/>
<text text-anchor="middle" x="441.8354" y="-428.7" font-family="Courier,monospace" font-size="11.00" fill="#000000">OrderImport</text>
</g>
<!-- \\Edg\\ErpService\\Sync\\Pull\\OrderImport&#45;&gt;\\Edg\\ErpService\\Sync\\Request -->
<g id="edge4" class="edge">
<title>\\Edg\\ErpService\\Sync\\Pull\\OrderImport&#45;&gt;\\Edg\\ErpService\\Sync\\Request</title>
<path fill="none" stroke="#000000" d="M397.4645,-439.1646C375.3828,-442.7302 348.5788,-447.0582 325.65,-450.7606"/>
<polygon fill="none" stroke="#000000" points="325.0675,-447.3092 315.7533,-452.3586 326.1834,-454.2197 325.0675,-447.3092"/>
</g>
<!-- \\Edg\\ErpService\\Sync\\Push\\OrderExport -->
<g id="node9" class="node">
<title>\\Edg\\ErpService\\Sync\\Push\\OrderExport</title>
<polygon fill="none" stroke="#000000" points="485.9481,-371 397.7228,-371 397.7228,-335 485.9481,-335 485.9481,-371"/>
<text text-anchor="middle" x="441.8354" y="-349.7" font-family="Courier,monospace" font-size="11.00" fill="#000000">OrderExport</text>
</g>
<!-- \\Edg\\ErpService\\Sync\\Push\\OrderExport&#45;&gt;\\Edg\\ErpService\\Sync\\Request -->
<g id="edge3" class="edge">
<title>\\Edg\\ErpService\\Sync\\Push\\OrderExport&#45;&gt;\\Edg\\ErpService\\Sync\\Request</title>
<path fill="none" stroke="#000000" d="M413.0905,-371.222C385.1298,-388.947 342.5122,-415.9632 311.9456,-435.3401"/>
<polygon fill="none" stroke="#000000" points="309.8437,-432.5285 303.2717,-440.8387 313.5916,-438.4406 309.8437,-432.5285"/>
</g>
<!-- \\Edg\\ErpService\\Sync\\RequestInterface -->
<g id="node11" class="node">
<title>\\Edg\\ErpService\\Sync\\RequestInterface</title>
<polygon fill="none" stroke="#000000" points="161.4264,-477 40.1908,-477 40.1908,-441 161.4264,-441 161.4264,-477"/>
<text text-anchor="middle" x="100.8086" y="-455.7" font-family="Courier,monospace" font-size="11.00" fill="#000000">RequestInterface</text>
</g>
<!-- \\Edg\\ErpService\\Sync\\Request&#45;&gt;\\Edg\\ErpService\\Sync\\RequestInterface -->
<g id="edge5" class="edge">
<title>\\Edg\\ErpService\\Sync\\Request&#45;&gt;\\Edg\\ErpService\\Sync\\RequestInterface</title>
<path fill="none" stroke="#000000" stroke-dasharray="1,5" d="M233.4311,-459C214.9689,-459 192.6589,-459 171.6472,-459"/>
<polygon fill="none" stroke="#000000" points="171.4592,-455.5001 161.4592,-459 171.4592,-462.5001 171.4592,-455.5001"/>
</g>
<!-- \\Edg\\ErpService\\Response\\OrderStatus -->
<g id="node12" class="node">
<title>\\Edg\\ErpService\\Response\\OrderStatus</title>
<polygon fill="none" stroke="#000000" points="485.9481,-284 397.7228,-284 397.7228,-248 485.9481,-248 485.9481,-284"/>
<text text-anchor="middle" x="441.8354" y="-262.7" font-family="Courier,monospace" font-size="11.00" fill="#000000">OrderStatus</text>
</g>
<!-- \\Edg\\ErpService\\Response\\UploadOrders -->
<g id="node13" class="node">
<title>\\Edg\\ErpService\\Response\\UploadOrders</title>
<polygon fill="none" stroke="#000000" points="489.5486,-230 394.1223,-230 394.1223,-194 489.5486,-194 489.5486,-230"/>
<text text-anchor="middle" x="441.8354" y="-208.7" font-family="Courier,monospace" font-size="11.00" fill="#000000">UploadOrders</text>
</g>
<!-- \\Edg\\ErpService\\Response\\StockMutation -->
<g id="node14" class="node">
<title>\\Edg\\ErpService\\Response\\StockMutation</title>
<polygon fill="none" stroke="#000000" points="492.6496,-176 391.0213,-176 391.0213,-140 492.6496,-140 492.6496,-176"/>
<text text-anchor="middle" x="441.8354" y="-154.7" font-family="Courier,monospace" font-size="11.00" fill="#000000">StockMutation</text>
</g>
<!-- \\Edg\\ErpService\\Response\\ArticleInfo -->
<g id="node15" class="node">
<title>\\Edg\\ErpService\\Response\\ArticleInfo</title>
<polygon fill="none" stroke="#000000" points="485.9481,-122 397.7228,-122 397.7228,-86 485.9481,-86 485.9481,-122"/>
<text text-anchor="middle" x="441.8354" y="-100.7" font-family="Courier,monospace" font-size="11.00" fill="#000000">ArticleInfo</text>
</g>
<!-- \\Edg\\ErpService\\Client -->
<g id="node16" class="node">
<title>\\Edg\\ErpService\\Client</title>
<polygon fill="none" stroke="#000000" points="469.4433,-68 414.2276,-68 414.2276,-32 469.4433,-32 469.4433,-68"/>
<text text-anchor="middle" x="441.8354" y="-46.7" font-family="Courier,monospace" font-size="11.00" fill="#000000">Client</text>
</g>
</g>
</svg>
